<svg id="Grupo_38952" data-name="Grupo 38952" xmlns="http://www.w3.org/2000/svg" xmlns:xlink="http://www.w3.org/1999/xlink" width="18" height="18" viewBox="0 0 18 18">
  <defs>
    <clipPath id="clip-path">
      <rect id="Rectángulo_11705" data-name="Rectángulo 11705" width="18" height="18" fill="#343a40"/>
    </clipPath>
  </defs>
  <g id="Grupo_38909" data-name="Grupo 38909" clip-path="url(#clip-path)">
    <path id="Trazado_69479" data-name="Trazado 69479" d="M17.449,0H6.429a.551.551,0,0,0-.551.551V4.408H.551A.551.551,0,0,0,0,4.959v12.49A.551.551,0,0,0,.551,18h16.9A.551.551,0,0,0,18,17.449V.551A.551.551,0,0,0,17.449,0M5.878,10.286H3.306v-1.1H5.878ZM1.1,5.51H5.878V8.082H2.755a.551.551,0,0,0-.551.551v2.2a.551.551,0,0,0,.551.551H5.878V16.9H1.1ZM10.653,16.9V15.245a.92.92,0,0,1,.918-.918h.735a.92.92,0,0,1,.918.918V16.9Zm6.245,0H14.327V15.245a2.022,2.022,0,0,0-2.02-2.02h-.735a2.022,2.022,0,0,0-2.02,2.02V16.9H6.98V1.1H16.9Z" fill="#343a40"/>
    <path id="Trazado_69480" data-name="Trazado 69480" d="M11.551,5.1h.735a.551.551,0,1,0,0-1.1h-.735a.551.551,0,1,0,0,1.1" transform="translate(-2 -1.061)" fill="#343a40"/>
    <path id="Trazado_69482" data-name="Trazado 69482" d="M19.551,5.1h.735a.551.551,0,1,0,0-1.1h-.735a.551.551,0,1,0,0,1.1" transform="translate(-6.041 -1.061)" fill="#343a40"/>
    <path id="Trazado_69483" data-name="Trazado 69483" d="M11.551,10.1h.735a.551.551,0,0,0,0-1.1h-.735a.551.551,0,0,0,0,1.1" transform="translate(-2 -2.388)" fill="#343a40"/>
    <path id="Trazado_69485" data-name="Trazado 69485" d="M19.551,10.1h.735a.551.551,0,1,0,0-1.1h-.735a.551.551,0,1,0,0,1.1" transform="translate(-5.959 -2.388)" fill="#343a40"/>
    <path id="Trazado_69486" data-name="Trazado 69486" d="M11.551,15.1h.735a.551.551,0,0,0,0-1.1h-.735a.551.551,0,0,0,0,1.1" transform="translate(-1.918 -3.714)" fill="#343a40"/>
    <path id="Trazado_69488" data-name="Trazado 69488" d="M19.551,15.1h.735a.551.551,0,1,0,0-1.1h-.735a.551.551,0,1,0,0,1.1" transform="translate(-6.041 -3.714)" fill="#343a40"/>
  </g>
</svg>
