<svg xmlns="http://www.w3.org/2000/svg" xmlns:xlink="http://www.w3.org/1999/xlink" width="10" height="13.438" viewBox="0 0 10 13.438">
  <defs>
    <clipPath id="clip-path">
      <rect id="Rectángulo_11772" data-name="Rectángulo 11772" width="10" height="13.438" fill="#343a40"/>
    </clipPath>
  </defs>
  <g id="Grupo_39008" data-name="Grupo 39008" transform="translate(0 0)">
    <g id="Grupo_39007" data-name="Grupo 39007" transform="translate(0 0)" clip-path="url(#clip-path)">
      <path id="Trazado_69568" data-name="Trazado 69568" d="M5,13.438l-.453-.453C4.362,12.8-.006,8.391,0,5A5,5,0,0,1,10,5c0,3.372-4.362,7.8-4.547,7.984ZM5,1.277A3.727,3.727,0,0,0,1.277,5c0,2.11,2.375,5.14,3.722,6.607C6.345,10.135,8.723,7.1,8.723,5A3.727,3.727,0,0,0,5,1.277" transform="translate(0 0)" fill="#343a40"/>
      <path id="Trazado_69569" data-name="Trazado 69569" d="M6.346,8.736A2.621,2.621,0,1,1,8.967,6.115,2.624,2.624,0,0,1,6.346,8.736m0-3.965A1.344,1.344,0,1,0,7.69,6.115,1.345,1.345,0,0,0,6.346,4.771" transform="translate(-1.346 -1.262)" fill="#343a40"/>
    </g>
  </g>
</svg>
