<svg id="Grupo_39213" data-name="Grupo 39213" xmlns="http://www.w3.org/2000/svg" xmlns:xlink="http://www.w3.org/1999/xlink" width="16.285" height="16.268" viewBox="0 0 16.285 16.268">
  <defs>
    <clipPath id="clip-path">
      <rect id="Rectángulo_11686" data-name="Rectángulo 11686" width="16.285" height="16.268" fill="#343a40"/>
    </clipPath>
  </defs>
  <g id="Grupo_38898" data-name="Grupo 38898" transform="translate(0 0)" clip-path="url(#clip-path)">
    <path id="Trazado_69446" data-name="Trazado 69446" d="M15.633,19.4a.654.654,0,0,1-.291-.068l-3.634-1.817-3.3,1.464a.653.653,0,0,1-.528,0l-3.3-1.464L.943,19.329a.652.652,0,0,1-.936-.675l1.3-9.119a.652.652,0,0,1,.645-.559h.651a.651.651,0,1,1,0,1.3H2.519L1.472,17.607l2.8-1.4a.649.649,0,0,1,.555-.012l3.319,1.471L11.461,16.2a.649.649,0,0,1,.555.012l2.8,1.4-1.047-7.329h-.087a.651.651,0,0,1,0-1.3h.651a.652.652,0,0,1,.645.559l1.3,9.119a.652.652,0,0,1-.645.744" transform="translate(0 -3.129)" fill="#343a40"/>
    <path id="Trazado_69447" data-name="Trazado 69447" d="M9.772,13.705l-.462-.462c-.19-.19-4.646-4.685-4.639-8.145a5.1,5.1,0,0,1,10.2,0c0,3.439-4.448,7.952-4.638,8.142Zm0-12.4a3.8,3.8,0,0,0-3.8,3.8c0,2.152,2.423,5.242,3.8,6.738,1.372-1.5,3.8-4.6,3.8-6.738a3.8,3.8,0,0,0-3.8-3.8" transform="translate(-1.628 0)" fill="#343a40"/>
    <path id="Trazado_69448" data-name="Trazado 69448" d="M11.069,8.841a2.673,2.673,0,1,1,2.673-2.673,2.676,2.676,0,0,1-2.673,2.673m0-4.044A1.371,1.371,0,1,0,12.44,6.167,1.372,1.372,0,0,0,11.069,4.8" transform="translate(-2.927 -1.218)" fill="#343a40"/>
  </g>
</svg>
