<svg id="Grupo_39035" data-name="Grupo 39035" xmlns="http://www.w3.org/2000/svg" xmlns:xlink="http://www.w3.org/1999/xlink" width="47" height="41.021" viewBox="0 0 47 41.021">
  <defs>
    <clipPath id="clip-path">
      <rect id="Rectángulo_11803" data-name="Rectángulo 11803" width="47" height="41.021" fill="#f9a825"/>
    </clipPath>
  </defs>
  <g id="Grupo_39034" data-name="Grupo 39034" transform="translate(0 0)" clip-path="url(#clip-path)">
    <path id="Trazado_69584" data-name="Trazado 69584" d="M0,26.839C0,15.118,6.33,5.389,16.879,0l3.164,5.743C12.307,10.2,7.854,16.993,7.854,26.019L10.08,35.16,3.635,27.308c1.992-2.227,4.688-3.867,7.383-3.867,4.8,0,8.2,3.516,8.2,8.555,0,5.274-3.516,9.026-8.672,9.026C4.455,41.021,0,35.748,0,26.839m26.958,0c0-11.721,6.33-21.45,16.878-26.839L47,5.743C39.264,10.2,34.808,16.993,34.808,26.019l2.227,9.141-6.446-7.852c1.992-2.227,4.689-3.867,7.385-3.867,4.8,0,8.205,3.516,8.205,8.555,0,5.274-3.519,9.026-8.674,9.026-6.094,0-10.548-5.274-10.548-14.182" transform="translate(0 0)" fill="#f9a825"/>
  </g>
</svg>
