<svg id="Grupo_39012" data-name="Grupo 39012" xmlns="http://www.w3.org/2000/svg" xmlns:xlink="http://www.w3.org/1999/xlink" width="11" height="13.2" viewBox="0 0 11 13.2">
  <defs>
    <clipPath id="clip-path">
      <rect id="Rectángulo_11775" data-name="Rectángulo 11775" width="11" height="13.2" fill="#343a40"/>
    </clipPath>
  </defs>
  <g id="Grupo_39011" data-name="Grupo 39011" clip-path="url(#clip-path)">
    <path id="Trazado_69573" data-name="Trazado 69573" d="M7.3,7.7c1.974,0,3.3-1.547,3.3-3.85S9.274,0,7.3,0,4,1.547,4,3.85,5.326,7.7,7.3,7.7m0-6.6c1.622,0,2.2,1.421,2.2,2.75S8.922,6.6,7.3,6.6,5.1,5.179,5.1,3.85,5.678,1.1,7.3,1.1" transform="translate(-1.8)" fill="#343a40"/>
    <path id="Trazado_69574" data-name="Trazado 69574" d="M6.6,15H4.4A4.4,4.4,0,0,0,0,19.4a.549.549,0,0,0,.55.55h9.9A.55.55,0,0,0,11,19.4,4.405,4.405,0,0,0,6.6,15M1.146,18.85A3.306,3.306,0,0,1,4.4,16.1H6.6a3.307,3.307,0,0,1,3.254,2.75Z" transform="translate(0 -6.75)" fill="#343a40"/>
  </g>
</svg>
