<?xml version="1.0" encoding="UTF-8" standalone="no"?>
<svg
   id="Capa_2"
   data-name="Capa 2"
   viewBox="0 0 252.31908 51.451704"
   version="1.1"
   sodipodi:docname="logo-southamerica.svg"
   width="252.31908"
   height="51.451702"
   inkscape:version="1.1.1 (c3084ef, 2021-09-22)"
   xmlns:inkscape="http://www.inkscape.org/namespaces/inkscape"
   xmlns:sodipodi="http://sodipodi.sourceforge.net/DTD/sodipodi-0.dtd"
   xmlns="http://www.w3.org/2000/svg"
   xmlns:svg="http://www.w3.org/2000/svg">
  <sodipodi:namedview
     id="namedview960"
     pagecolor="#ffffff"
     bordercolor="#666666"
     borderopacity="1.0"
     inkscape:pageshadow="2"
     inkscape:pageopacity="0.0"
     inkscape:pagecheckerboard="0"
     showgrid="false"
     inkscape:zoom="3.3162588"
     inkscape:cx="177.45901"
     inkscape:cy="20.655806"
     inkscape:window-width="2560"
     inkscape:window-height="1387"
     inkscape:window-x="0"
     inkscape:window-y="25"
     inkscape:window-maximized="1"
     inkscape:current-layer="Capa_2" />
  <defs
     id="defs826">
    <style
       id="style824">
      .cls-1 {
        fill: #6e4603;
      }

      .cls-1, .cls-2, .cls-3 {
        stroke-width: 0px;
      }

      .cls-2 {
        fill: #7f890c;
      }

      .cls-3 {
        fill: #faa00c;
      }
    </style>
  </defs>
  <g
     id="g956"
     transform="matrix(0.61166053,0,0,0.61166053,0.00118965,-2.6496728)">
    <path
       class="cls-3"
       d="M 23.05,7.71 C 17.49,7.65 11.92,7.59 6.36,7.54 6.08,7.54 6.03,7.48 6.25,7.32 q 0,0 0,0 c 0.26,-0.19 0.83,-0.4 1.39,-0.56 0,0 0.01,0 0.02,0 C 8.13,6.63 8.51,6.51 8.71,6.51 12.74,6.47 16.77,6.43 20.8,6.38 c 0.67,0.1 1.39,0.37 2.17,0.66 0.08,0.16 0.11,0.34 0.08,0.67 z"
       id="path886" />
    <path
       class="cls-3"
       d="M 13.99,5.6 C 12.32,5.49 10.61,5.8 8.84,5.62 8.75,5.62 8.72,5.56 8.78,5.41 q 0,0 0,0 C 8.84,5.23 8.99,5 9.15,4.85 c 0,0 0,0 0,0 0.13,-0.13 0.25,-0.22 0.31,-0.22 1.33,0.05 2.62,-0.36 3.85,-0.29 0.2,0.1 0.42,0.35 0.65,0.65 0.02,0.16 0.03,0.32 0.02,0.62 z"
       id="path888" />
    <path
       class="cls-3"
       d="M 25.97,9.63 C 18.75,9.57 11.54,9.51 4.32,9.46 3.96,9.46 3.89,9.4 4.18,9.24 q 0,0 0,0 c 0.34,-0.19 1.07,-0.4 1.8,-0.56 0,0 0.02,0 0.02,0 C 6.6,8.55 7.11,8.43 7.36,8.43 12.59,8.39 17.82,8.35 23.05,8.3 c 0.87,0.1 1.8,0.37 2.82,0.66 0.11,0.16 0.14,0.34 0.1,0.67 z"
       id="path890" />
    <path
       class="cls-3"
       d="M 33.34,11.64 C 23.19,11.58 13.03,11.52 2.88,11.47 c -0.51,0 -0.6,-0.06 -0.2,-0.22 q 0,0 0,0 c 0.47,-0.19 1.51,-0.4 2.54,-0.56 0.01,0 0.02,0 0.03,0 0.85,-0.13 1.56,-0.25 1.92,-0.25 7.36,-0.04 14.72,-0.08 22.07,-0.13 1.22,0.1 2.54,0.37 3.96,0.66 0.15,0.16 0.2,0.34 0.14,0.67 z"
       id="path892" />
    <path
       class="cls-3"
       d="M 36.02,14.13 C 25.32,14.07 14.61,14.01 3.91,13.96 3.37,13.96 3.27,13.9 3.7,13.74 q 0,0 0,0 c 0.5,-0.19 1.59,-0.4 2.67,-0.56 0.01,0 0.02,0 0.04,0 0.9,-0.13 1.64,-0.25 2.02,-0.25 7.76,-0.04 15.51,-0.08 23.27,-0.13 1.28,0.1 2.68,0.37 4.18,0.66 0.16,0.16 0.21,0.34 0.15,0.67 z"
       id="path894" />
    <path
       class="cls-3"
       d="M 36.91,16.7 C 25.9,16.64 14.89,16.58 3.89,16.53 3.34,16.53 3.24,16.47 3.68,16.31 q 0,0 0,0 c 0.52,-0.19 1.64,-0.4 2.75,-0.56 0.01,0 0.02,0 0.04,0 0.92,-0.13 1.69,-0.25 2.08,-0.25 7.98,-0.04 15.95,-0.08 23.93,-0.13 1.32,0.1 2.75,0.37 4.3,0.66 0.16,0.16 0.21,0.34 0.15,0.67 z"
       id="path896" />
    <path
       class="cls-3"
       d="M 43.39,19.38 C 29.98,19.32 16.58,19.26 3.17,19.21 2.5,19.21 2.37,19.15 2.91,18.99 q 0,0 0,0 c 0.63,-0.19 1.99,-0.4 3.35,-0.56 0.01,0 0.03,0 0.04,0 1.12,-0.13 2.06,-0.25 2.53,-0.25 9.71,-0.04 19.43,-0.08 29.14,-0.13 1.61,0.1 3.35,0.37 5.23,0.66 0.2,0.16 0.26,0.34 0.18,0.67 z"
       id="path898" />
    <path
       class="cls-1"
       d="M 49.86,43.03 C 38.52,42.96 27.18,42.89 15.84,42.82 c -0.57,0 -0.67,-0.08 -0.22,-0.27 v 0 c 0.53,-0.23 1.69,-0.5 2.83,-0.69 0.01,0 0.02,0 0.04,0 0.95,-0.16 1.74,-0.3 2.14,-0.31 8.22,-0.05 16.43,-0.1 24.65,-0.15 1.36,0.13 2.84,0.45 4.42,0.82 0.17,0.19 0.22,0.42 0.16,0.83 z"
       id="path900" />
    <path
       class="cls-1"
       d="M 48.2,45.81 C 37.57,45.75 26.95,45.69 16.32,45.64 c -0.54,0 -0.63,-0.06 -0.21,-0.22 q 0,0 0,0 c 0.5,-0.19 1.58,-0.4 2.65,-0.56 0.01,0 0.02,0 0.03,0 0.89,-0.13 1.63,-0.25 2,-0.25 7.7,-0.04 15.4,-0.08 23.1,-0.13 1.28,0.1 2.66,0.37 4.15,0.66 0.16,0.16 0.2,0.34 0.15,0.67 z"
       id="path902" />
    <path
       class="cls-1"
       d="m 45.94,48.49 c -9.5,-0.06 -18.99,-0.12 -28.49,-0.17 -0.48,0 -0.56,-0.06 -0.18,-0.22 v 0 c 0.44,-0.19 1.41,-0.4 2.37,-0.56 0.01,0 0.02,0 0.03,0 0.8,-0.13 1.46,-0.25 1.79,-0.25 6.88,-0.04 13.76,-0.08 20.64,-0.13 1.14,0.1 2.37,0.37 3.7,0.66 0.14,0.16 0.18,0.34 0.13,0.67 z"
       id="path904" />
    <path
       class="cls-1"
       d="m 44.03,51.05 c -9.15,-0.06 -18.3,-0.12 -27.46,-0.17 -0.46,0 -0.54,-0.06 -0.18,-0.22 q 0,0 0,0 c 0.43,-0.19 1.36,-0.4 2.29,-0.56 0,0 0.02,0 0.03,0 0.77,-0.13 1.4,-0.25 1.73,-0.25 6.63,-0.04 13.26,-0.08 19.89,-0.13 1.1,0.1 2.29,0.37 3.57,0.66 0.13,0.16 0.18,0.34 0.13,0.67 z"
       id="path906" />
    <path
       class="cls-1"
       d="m 42.47,53.71 c -8.66,-0.06 -17.32,-0.12 -25.98,-0.17 -0.44,0 -0.52,-0.06 -0.17,-0.22 q 0,0 0,0 c 0.41,-0.19 1.29,-0.4 2.16,-0.56 0,0 0.02,0 0.03,0 0.73,-0.13 1.33,-0.25 1.63,-0.25 6.28,-0.04 12.55,-0.08 18.83,-0.13 1.04,0.1 2.17,0.37 3.38,0.66 0.13,0.16 0.17,0.34 0.12,0.67 z"
       id="path908" />
    <path
       class="cls-2"
       d="M 40.49,56.12 C 32.37,56.06 24.24,56 16.12,55.95 c -0.41,0 -0.48,-0.06 -0.16,-0.22 q 0,0 0,0 c 0.38,-0.19 1.21,-0.4 2.03,-0.56 0,0 0.02,0 0.03,0 0.68,-0.13 1.25,-0.25 1.53,-0.25 5.89,-0.04 11.77,-0.08 17.66,-0.13 0.98,0.1 2.03,0.37 3.17,0.66 0.12,0.16 0.16,0.34 0.11,0.67 z"
       id="path910" />
    <path
       class="cls-2"
       d="M 39.47,58.92 C 31.41,58.86 23.36,58.8 15.3,58.75 c -0.41,0 -0.48,-0.06 -0.16,-0.22 v 0 c 0.38,-0.19 1.2,-0.4 2.01,-0.56 0,0 0.02,0 0.03,0 0.67,-0.13 1.24,-0.25 1.52,-0.25 5.84,-0.04 11.68,-0.08 17.51,-0.13 0.97,0.1 2.01,0.37 3.14,0.66 0.12,0.16 0.16,0.34 0.11,0.67 z"
       id="path912" />
    <path
       class="cls-2"
       d="M 32.93,61.52 C 27.04,61.46 21.15,61.4 15.26,61.35 c -0.3,0 -0.35,-0.06 -0.11,-0.22 q 0,0 0,0 c 0.27,-0.19 0.88,-0.4 1.47,-0.56 0,0 0.01,0 0.02,0 0.49,-0.13 0.9,-0.25 1.11,-0.25 4.27,-0.04 8.54,-0.08 12.8,-0.13 0.71,0.1 1.47,0.37 2.3,0.66 0.09,0.16 0.11,0.34 0.08,0.67 z"
       id="path914" />
    <path
       class="cls-2"
       d="M 31.82,64.2 C 26.31,64.14 20.8,64.09 15.3,64.03 c -0.28,0 -0.33,-0.06 -0.11,-0.22 v 0 c 0.26,-0.19 0.82,-0.4 1.38,-0.56 0,0 0.01,0 0.02,0 0.46,-0.13 0.85,-0.25 1.04,-0.25 3.99,-0.04 7.98,-0.08 11.97,-0.12 0.66,0.1 1.38,0.37 2.15,0.66 0.08,0.16 0.11,0.34 0.08,0.67 z"
       id="path916" />
    <path
       class="cls-2"
       d="m 29.68,66.93 c -4.91,-0.06 -9.82,-0.12 -14.73,-0.17 -0.25,0 -0.29,-0.06 -0.1,-0.22 q 0,0 0,0 c 0.23,-0.19 0.73,-0.4 1.23,-0.56 0,0 0.01,0 0.02,0 0.41,-0.13 0.76,-0.25 0.93,-0.25 3.56,-0.04 7.12,-0.08 10.68,-0.13 0.59,0.1 1.23,0.37 1.92,0.66 0.07,0.16 0.09,0.34 0.07,0.67 z"
       id="path918" />
    <path
       class="cls-2"
       d="m 27.73,69.27 c -4.24,-0.06 -8.48,-0.12 -12.72,-0.17 -0.21,0 -0.25,-0.06 -0.08,-0.22 q 0,0 0,0 c 0.2,-0.19 0.63,-0.4 1.06,-0.56 0,0 0,0 0.01,0 0.36,-0.13 0.65,-0.25 0.8,-0.25 3.07,-0.04 6.15,-0.08 9.22,-0.13 0.51,0.1 1.06,0.37 1.65,0.66 0.06,0.16 0.08,0.34 0.06,0.67 z"
       id="path920" />
    <path
       class="cls-2"
       d="m 26.33,71.65 c -3.68,-0.06 -7.37,-0.12 -11.05,-0.17 -0.19,0 -0.22,-0.06 -0.07,-0.22 q 0,0 0,0 c 0.17,-0.19 0.55,-0.4 0.92,-0.56 0,0 0,0 0.01,0 0.31,-0.13 0.56,-0.25 0.7,-0.25 2.67,-0.04 5.34,-0.08 8.01,-0.13 0.44,0.1 0.92,0.37 1.44,0.66 0.05,0.16 0.07,0.34 0.05,0.67 z"
       id="path922" />
    <path
       class="cls-2"
       d="m 25.53,74.27 c -3.27,-0.06 -6.55,-0.12 -9.82,-0.17 -0.17,0 -0.2,-0.06 -0.06,-0.22 q 0,0 0,0 c 0.15,-0.19 0.49,-0.4 0.82,-0.56 0,0 0,0 0.01,0 0.28,-0.13 0.5,-0.25 0.62,-0.25 2.37,-0.04 4.74,-0.08 7.11,-0.13 0.39,0.1 0.82,0.37 1.28,0.66 0.05,0.16 0.06,0.34 0.05,0.67 z"
       id="path924" />
    <path
       class="cls-2"
       d="m 25.53,76.56 c -3.35,-0.06 -6.7,-0.12 -10.05,-0.17 -0.17,0 -0.2,-0.06 -0.07,-0.22 v 0 c 0.16,-0.19 0.5,-0.4 0.84,-0.56 0,0 0,0 0.01,0 0.28,-0.13 0.51,-0.25 0.63,-0.25 2.43,-0.04 4.85,-0.08 7.28,-0.13 0.4,0.1 0.84,0.37 1.31,0.66 0.05,0.16 0.06,0.34 0.05,0.67 z"
       id="path926" />
    <path
       class="cls-2"
       d="m 23.98,79.24 c -2.88,-0.06 -5.76,-0.12 -8.63,-0.17 -0.15,0 -0.17,-0.06 -0.06,-0.22 q 0,0 0,0 c 0.14,-0.19 0.43,-0.4 0.72,-0.56 0,0 0,0 0,0 0.24,-0.13 0.44,-0.25 0.54,-0.25 2.09,-0.04 4.17,-0.08 6.26,-0.13 0.35,0.1 0.72,0.37 1.12,0.66 0.04,0.16 0.06,0.34 0.04,0.67 z"
       id="path928" />
    <path
       class="cls-2"
       d="m 22.44,81.55 c -2.29,-0.06 -4.58,-0.12 -6.87,-0.17 -0.12,0 -0.14,-0.06 -0.04,-0.22 q 0,0 0,0 c 0.11,-0.19 0.34,-0.4 0.57,-0.56 0,0 0,0 0,0 0.19,-0.13 0.35,-0.25 0.43,-0.25 1.66,-0.04 3.32,-0.08 4.98,-0.13 0.27,0.1 0.57,0.37 0.89,0.66 0.03,0.16 0.04,0.34 0.03,0.67 z"
       id="path930" />
    <path
       class="cls-2"
       d="m 23.31,84.05 c -2.1,-0.06 -4.2,-0.12 -6.3,-0.17 -0.11,0 -0.12,-0.06 -0.04,-0.22 v 0 c 0.1,-0.19 0.31,-0.4 0.52,-0.56 0,0 0,0 0,0 0.18,-0.13 0.32,-0.25 0.4,-0.25 1.52,-0.04 3.04,-0.08 4.57,-0.13 0.25,0.1 0.53,0.37 0.82,0.66 0.03,0.16 0.04,0.34 0.03,0.67 z"
       id="path932" />
    <path
       class="cls-2"
       d="m 25.5,86.25 c -1.74,-0.06 -3.48,-0.12 -5.21,-0.17 -0.09,0 -0.1,-0.06 -0.03,-0.22 q 0,0 0,0 c 0.08,-0.19 0.26,-0.4 0.43,-0.56 0,0 0,0 0,0 0.15,-0.13 0.27,-0.25 0.33,-0.25 1.26,-0.04 2.52,-0.08 3.78,-0.13 0.21,0.1 0.43,0.37 0.68,0.66 0.03,0.16 0.03,0.34 0.02,0.67 z"
       id="path934" />
    <path
       class="cls-2"
       d="m 27.91,88.45 c -1.26,-0.06 -2.52,-0.12 -3.78,-0.17 -0.06,0 -0.08,-0.06 -0.02,-0.22 q 0,0 0,0 c 0.06,-0.19 0.19,-0.4 0.31,-0.56 0,0 0,0 0,0 0.11,-0.13 0.19,-0.25 0.24,-0.25 0.91,-0.04 1.83,-0.08 2.74,-0.13 0.15,0.1 0.32,0.37 0.49,0.66 0.02,0.16 0.02,0.34 0.02,0.67 z"
       id="path936" />
    <path
       class="cls-3"
       d="M 51.07,21.53 C 34.58,21.47 18.09,21.41 1.6,21.36 0.77,21.36 0.62,21.3 1.28,21.14 q 0,0 0,0 c 0.77,-0.19 2.45,-0.4 4.12,-0.56 0.02,0 0.04,0 0.05,0 1.38,-0.13 2.53,-0.25 3.11,-0.25 11.95,-0.04 23.9,-0.08 35.84,-0.13 1.98,0.1 4.12,0.37 6.43,0.66 0.24,0.16 0.32,0.34 0.23,0.67 z"
       id="path938" />
    <path
       class="cls-1"
       d="M 50.96,40.29 C 37.5,40.23 24.03,40.17 10.57,40.12 c -0.68,0 -0.8,-0.06 -0.26,-0.22 q 0,0 0,0 c 0.63,-0.19 2,-0.4 3.36,-0.56 0.01,0 0.03,0 0.04,0 1.13,-0.13 2.07,-0.25 2.54,-0.25 9.76,-0.04 19.51,-0.08 29.27,-0.13 1.62,0.1 3.37,0.37 5.25,0.66 0.2,0.16 0.26,0.34 0.19,0.67 z"
       id="path940" />
    <path
       class="cls-3"
       d="m 55.73,23.92 c -18.3,-0.06 -36.6,-0.12 -54.9,-0.17 -0.92,0 -1.09,-0.06 -0.36,-0.22 q 0,0 0,0 c 0.86,-0.19 2.72,-0.4 4.57,-0.56 0.02,0 0.04,0 0.06,0 1.54,-0.13 2.81,-0.25 3.45,-0.25 13.26,-0.04 26.52,-0.08 39.78,-0.13 2.2,0.1 4.58,0.37 7.14,0.66 0.27,0.16 0.35,0.34 0.25,0.67 z"
       id="path942" />
    <path
       class="cls-1"
       d="M 52.23,38.06 C 37.53,38 22.82,37.94 8.12,37.89 7.38,37.89 7.25,37.83 7.83,37.67 q 0,0 0,0 c 0.69,-0.19 2.19,-0.4 3.67,-0.56 0.02,0 0.03,0 0.05,0 1.23,-0.13 2.26,-0.25 2.77,-0.25 10.65,-0.04 21.31,-0.08 31.96,-0.13 1.76,0.1 3.68,0.37 5.74,0.66 0.22,0.16 0.28,0.34 0.2,0.67 z"
       id="path944" />
    <path
       class="cls-1"
       d="M 56.78,26.12 C 38.43,26.06 20.08,26 1.74,25.95 0.81,25.95 0.65,25.89 1.38,25.73 q 0,0 0,0 c 0.86,-0.19 2.73,-0.4 4.58,-0.56 0.02,0 0.04,0 0.06,0 1.54,-0.13 2.82,-0.25 3.46,-0.25 13.29,-0.04 26.59,-0.08 39.88,-0.13 2.2,0.1 4.59,0.37 7.16,0.66 0.27,0.16 0.35,0.34 0.25,0.67 z"
       id="path946" />
    <path
       class="cls-1"
       d="M 52.24,35.79 C 36.75,35.73 21.25,35.67 5.76,35.62 4.98,35.62 4.84,35.56 5.46,35.4 q 0,0 0,0 c 0.72,-0.19 2.3,-0.4 3.87,-0.56 0.02,0 0.03,0 0.05,0 1.3,-0.13 2.38,-0.25 2.92,-0.25 11.23,-0.04 22.45,-0.08 33.68,-0.13 1.86,0.1 3.87,0.37 6.05,0.66 0.23,0.16 0.3,0.34 0.21,0.67 z"
       id="path948" />
    <path
       class="cls-1"
       d="M 56.16,28.42 C 37.71,28.36 19.27,28.3 0.82,28.25 c -0.93,0 -1.1,-0.06 -0.36,-0.22 0,0 0,0 0,0 0.86,-0.19 2.74,-0.4 4.61,-0.56 0.02,0 0.04,0 0.06,0 1.55,-0.13 2.83,-0.25 3.48,-0.25 13.37,-0.04 26.73,-0.08 40.1,-0.13 2.21,0.1 4.61,0.37 7.2,0.66 0.27,0.16 0.35,0.34 0.25,0.67 z"
       id="path950" />
    <path
       class="cls-1"
       d="M 55.19,31.02 C 37.73,30.96 20.28,30.9 2.82,30.85 1.94,30.85 1.78,30.79 2.48,30.63 q 0,0 0,0 c 0.82,-0.19 2.6,-0.4 4.36,-0.56 0.02,0 0.04,0 0.06,0 1.46,-0.13 2.68,-0.25 3.29,-0.25 12.65,-0.04 25.3,-0.08 37.95,-0.13 2.09,0.1 4.37,0.37 6.81,0.66 0.26,0.16 0.34,0.34 0.24,0.67 z"
       id="path952" />
    <path
       class="cls-1"
       d="M 53.47,33.41 C 37.05,33.36 20.63,33.31 4.22,33.26 3.39,33.26 3.24,33.2 3.9,33.06 v 0 c 0.77,-0.17 2.44,-0.36 4.1,-0.5 0.02,0 0.04,0 0.05,0 1.38,-0.12 2.52,-0.22 3.1,-0.22 11.9,-0.04 23.79,-0.07 35.69,-0.11 1.97,0.09 4.11,0.32 6.41,0.59 0.24,0.14 0.32,0.3 0.23,0.6 z"
       id="path954" />
  </g>
  <text
     xml:space="preserve"
     style="font-style:normal;font-variant:normal;font-weight:normal;font-stretch:normal;font-size:27.367px;line-height:1.25;font-family:Bolonewt;-inkscape-font-specification:Bolonewt;fill:#6e4603;fill-opacity:1;stroke:none;stroke-width:0.684178"
     x="37.119354"
     y="35.547119"
     id="text4709"
     transform="scale(0.97856511,1.0219044)"><tspan
       sodipodi:role="line"
       x="37.119354"
       y="35.547119"
       id="tspan7405"
       style="font-style:normal;font-variant:normal;font-weight:normal;font-stretch:normal;font-family:Bolonewt;-inkscape-font-specification:Bolonewt;fill:#6e4603;fill-opacity:1;stroke-width:0.684178">SOUTH<tspan
   style="fill:#000000;fill-opacity:1"
   id="tspan76667">AMERICA</tspan></tspan></text>
</svg>
