<svg xmlns="http://www.w3.org/2000/svg" xmlns:xlink="http://www.w3.org/1999/xlink" width="140" height="21.03" viewBox="0 0 140 21.03">
  <defs>
    <clipPath id="clip-path">
      <rect id="Rectángulo_7" data-name="Rectángulo 7" width="140" height="21.03" transform="translate(0 0)" fill="none"/>
    </clipPath>
  </defs>
  <g id="Grupo_3" data-name="Grupo 3" transform="translate(0 0)">
    <g id="Grupo_2" data-name="Grupo 2" transform="translate(0 0)" clip-path="url(#clip-path)">
      <path id="Trazado_1" data-name="Trazado 1" d="M77.587,16.909q0,.192-.458.458a1.452,1.452,0,0,1-.617.242.288.288,0,0,1-.2-.075,6.164,6.164,0,0,0-4.2-1.742,5.175,5.175,0,0,0-2.6.6,4.96,4.96,0,0,0-1.917,2.134,6.1,6.1,0,0,0-.7,2.793,5.647,5.647,0,0,0,1.726,4.164A5.71,5.71,0,0,0,72.794,27.2a4.678,4.678,0,0,0,3.384-1.234V22.045h-4.21q-.359,0-.358-.284,0-.2.483-.508a1.6,1.6,0,0,1,.7-.309h4.46a.273.273,0,0,1,.309.309v4.485q0,.459-2.176,1.684a6.594,6.594,0,0,1-3.276.875,6.646,6.646,0,0,1-6.6-6.627q0-3.8,4.01-6.1a6.477,6.477,0,0,1,3.276-.875,6.262,6.262,0,0,1,1.709.258,8.9,8.9,0,0,1,1.776.742q1.309.692,1.309,1.217" transform="translate(-42.776 -9.594)" fill="#768a00"/>
      <path id="Trazado_2" data-name="Trazado 2" d="M118.049,21.319q0,3.785-4.01,6.1a6.445,6.445,0,0,1-3.276.876,6.331,6.331,0,0,1-4.685-1.976,6.579,6.579,0,0,1,1.367-10.337,12.507,12.507,0,0,1,1.9-.934,6.093,6.093,0,0,1,2.1-.358,6.331,6.331,0,0,1,4.685,1.976,6.406,6.406,0,0,1,1.918,4.652m-1.384.35a5.863,5.863,0,0,0-5.9-5.877,5.875,5.875,0,0,0-2.6.6,5.931,5.931,0,0,0-2.618,4.927,5.863,5.863,0,0,0,5.9,5.877,5.873,5.873,0,0,0,2.6-.6,5.931,5.931,0,0,0,2.618-4.927" transform="translate(-68.015 -9.594)" fill="#768a00"/>
      <path id="Trazado_3" data-name="Trazado 3" d="M158.051,14.976a.344.344,0,0,1-.209.3q-.233.167-.467.325a.938.938,0,0,1-.508.192h-3.135V27.572q0,.192-.4.471a1.265,1.265,0,0,1-.7.279q-.292,0-.292-.317V15.792h-3.959q-.359,0-.358-.284a.343.343,0,0,1,.209-.3q.233-.167.467-.325a.939.939,0,0,1,.508-.192h8.478q.358,0,.358.284" transform="translate(-96.662 -9.594)" fill="#ffb94f"/>
      <path id="Trazado_4" data-name="Trazado 4" d="M194.637,21.319q0,3.785-4.009,6.1a6.447,6.447,0,0,1-3.277.876,6.331,6.331,0,0,1-4.685-1.976,6.579,6.579,0,0,1,1.367-10.337,12.507,12.507,0,0,1,1.9-.934,6.093,6.093,0,0,1,2.1-.358,6.333,6.333,0,0,1,4.685,1.976,6.407,6.407,0,0,1,1.917,4.652m-1.384.35a5.863,5.863,0,0,0-5.9-5.877,5.875,5.875,0,0,0-2.6.6,5.932,5.932,0,0,0-2.618,4.927,5.863,5.863,0,0,0,5.9,5.877,5.873,5.873,0,0,0,2.6-.6,5.931,5.931,0,0,0,2.618-4.927" transform="translate(-118.026 -9.594)" fill="#ffb94f"/>
      <path id="Trazado_5" data-name="Trazado 5" d="M234.487,27.432a.343.343,0,0,1-.209.3q-.233.167-.466.325a.938.938,0,0,1-.509.192h-8.369a.276.276,0,0,1-.317-.308V15.369q0-.192.4-.471a1.269,1.269,0,0,1,.7-.279q.292,0,.292.317V27.148h8.128q.358,0,.359.284" transform="translate(-146.671 -9.546)" fill="#333"/>
      <path id="Trazado_6" data-name="Trazado 6" d="M264.7,27.572q0,.192-.4.471a1.267,1.267,0,0,1-.7.279q-.292,0-.292-.317v-4.71h-6.952v4.277q0,.192-.4.471a1.266,1.266,0,0,1-.7.279q-.291,0-.291-.317v-8.42a4.1,4.1,0,0,1,.842-2.593,7.256,7.256,0,0,1,2.126-1.7,4.407,4.407,0,0,1,2.234-.6,4.314,4.314,0,0,1,3.2,1.346,4.409,4.409,0,0,1,1.321,3.2Zm-1.384-5.377V19.585a3.779,3.779,0,0,0-3.818-3.793,3.838,3.838,0,0,0-1.559.325,3.66,3.66,0,0,0-1.576,3.118v2.959Z" transform="translate(-166.498 -9.594)" fill="#333"/>
      <path id="Trazado_7" data-name="Trazado 7" d="M296.854,14.976a.343.343,0,0,1-.208.3q-.233.167-.467.325a.936.936,0,0,1-.508.192h-3.134V27.572q0,.192-.4.471a1.265,1.265,0,0,1-.7.279q-.291,0-.292-.317V15.792h-3.96q-.359,0-.358-.284a.343.343,0,0,1,.209-.3q.233-.167.466-.325a.941.941,0,0,1,.509-.192H296.5q.358,0,.358.284" transform="translate(-187.298 -9.594)" fill="#333"/>
      <path id="Trazado_8" data-name="Trazado 8" d="M329.273,27.572q0,.192-.4.471a1.266,1.266,0,0,1-.7.279q-.292,0-.292-.317v-4.71h-6.953v4.277q0,.192-.4.471a1.265,1.265,0,0,1-.7.279q-.292,0-.292-.317v-8.42a4.1,4.1,0,0,1,.842-2.593,7.254,7.254,0,0,1,2.126-1.7,4.407,4.407,0,0,1,2.234-.6,4.314,4.314,0,0,1,3.2,1.346,4.409,4.409,0,0,1,1.321,3.2Zm-1.383-5.377V19.585a3.779,3.779,0,0,0-3.818-3.793,3.838,3.838,0,0,0-1.559.325,3.66,3.66,0,0,0-1.576,3.118v2.959Z" transform="translate(-208.663 -9.594)" fill="#333"/>
      <path id="Trazado_9" data-name="Trazado 9" d="M369.462,27.572q0,.192-.4.467a1.3,1.3,0,0,1-.7.275q-.283,0-.283-.308V17.5a1.644,1.644,0,0,0-.5-1.213,1.685,1.685,0,0,0-1.234-.5,5.87,5.87,0,0,0-2.6.6,5.928,5.928,0,0,0-2.618,4.927v6.252q0,.192-.4.467a1.3,1.3,0,0,1-.7.275c-.188,0-.283-.1-.283-.308V21.753a5.806,5.806,0,0,0-1.675-4.2,5.657,5.657,0,0,0-4.226-1.759,1.791,1.791,0,0,0-.5.075,1.707,1.707,0,0,0-.55,1.284v10.42q0,.192-.4.467a1.3,1.3,0,0,1-.7.275q-.284,0-.283-.308V17.5a2.175,2.175,0,0,1,.575-1.542,6.529,6.529,0,0,1,1.351-.95,2.346,2.346,0,0,1,1.192-.317,6.421,6.421,0,0,1,3.576,1.059,6.631,6.631,0,0,1,2.417,2.818,8,8,0,0,1,6.51-3.877,2.312,2.312,0,0,1,1.722.734,2.4,2.4,0,0,1,.713,1.726Z" transform="translate(-229.462 -9.594)" fill="#333"/>
      <path id="Trazado_10" data-name="Trazado 10" d="M0,26.368a8.43,8.43,0,0,0,3.142,6.591,9.513,9.513,0,0,0,3.691,1.824,16.444,16.444,0,0,0,7.258-.245c.583-.233.83-.517,1.408-.7,1.573-.5,2.708-.089,3.8-.089.936,0-.527-2.352-2.6-2.352h-.487c0-1.995,1.03-8.245-.811-9.895a24.2,24.2,0,0,1-.962,7.716c-1.049,3.16-2.9,4.633-6.326,4.277-4.821-.5-5.127-5.084-5.494-5.115A3.076,3.076,0,0,1,0,26.368" transform="translate(0 -14.041)" fill="#dabea9" fill-rule="evenodd"/>
      <path id="Trazado_11" data-name="Trazado 11" d="M19.63,16.06c.1-.4.223-.861.3-1.237.777-3.591-1.377-11.14-3.891-13.994A3.093,3.093,0,0,0,13.79,0a4.767,4.767,0,0,0,.487.973c2.212,4.46,4.367,8.162,4.379,13.383,0,.955-.284,3.249-.186,4.081.029.245.08.372.313-.016a23.314,23.314,0,0,0,.847-2.36" transform="translate(-9.005 0)" fill="#768a00" fill-rule="evenodd"/>
      <path id="Trazado_12" data-name="Trazado 12" d="M26.536,19.026c-.219.551-.647,1.751-.269,1.5A2.077,2.077,0,0,0,26.8,20.1c3.185-3.284,2.614-9.334,1.391-13.088-.584-1.794-1.133-4.2-3.419-4.2.1,1.235,1.9,4.184,2.549,7.67.723,3.915.635,4.966-.787,8.551" transform="translate(-16.177 -1.832)" fill="#ffb94f" fill-rule="evenodd"/>
      <path id="Trazado_13" data-name="Trazado 13" d="M31.3,21.752a7.061,7.061,0,0,1-1.849,2.171c.574.059,2.286-.873,3.229-2.854,1.443-3.033,1.009-7.631.664-9.393S32.76,8.059,31.4,7.946c-.869.1.205,1.531.635,4.232s.775,6.646-.732,9.575" transform="translate(-19.23 -5.189)" fill="#333" fill-rule="evenodd"/>
    </g>
  </g>
</svg>
